<svg xmlns="http://www.w3.org/2000/svg" xmlns:xlink="http://www.w3.org/1999/xlink" viewBox="0 0 193.19 193.19"><defs><style>.cls-1{fill:url(#linear-gradient);}.cls-2{fill:#fff;fill-rule:evenodd;}</style><linearGradient id="linear-gradient" x1="-418.26" y1="-89.68" x2="-421.14" y2="-86.9" gradientTransform="translate(21080.71 4512) scale(50)" gradientUnits="userSpaceOnUse"><stop offset="0" stop-color="#fd9292"/><stop offset="1" stop-color="#eb2a2a"/></linearGradient></defs><title>Asset 2</title><g id="Layer_2" data-name="Layer 2"><g id="Layer_1-2" data-name="Layer 1"><g id="Logo"><circle id="Oval" class="cls-1" cx="96.59" cy="96.59" r="96.59"/><path id="R" class="cls-2" d="M131.35,125.75a15.32,15.32,0,0,1-5.69,4.24,17.36,17.36,0,0,1-7.22,1.36,15.1,15.1,0,0,1-8.85-2.35c-2.16-1.53-3.61-4.24-4.24-8.12l-1.72-9.57a54.42,54.42,0,0,0-1.8-7.5,11.49,11.49,0,0,0-2.62-4.51,6.52,6.52,0,0,0-4.6-1.62H88.29v22.11a18,18,0,0,0,.54,5.24,3.56,3.56,0,0,0,2,2.26,13.7,13.7,0,0,0,4.69.72v1.89q-5.15-.27-14.63-.27c-6.95,0-12,.09-15.25.27V128a16.39,16.39,0,0,0,4.69-.72,3.56,3.56,0,0,0,2-2.26,18.46,18.46,0,0,0,.54-5.24V72a18.09,18.09,0,0,0-.54-5.24,3.52,3.52,0,0,0-2-2.25,13.41,13.41,0,0,0-4.69-.73V61.93c3.25.18,8.21.27,14.71.27,2.62,0,5.42,0,8.58-.09S94.25,62,95.51,62c8.94,0,15.62,1.44,20.13,4.33a13.89,13.89,0,0,1,6.77,12.37,16.88,16.88,0,0,1-2.08,8.12,17.67,17.67,0,0,1-7,6.68c-3.25,1.9-7.58,3.16-12.91,3.79h.09a36.55,36.55,0,0,1,9.66,2,13.63,13.63,0,0,1,5.87,4.06,14.69,14.69,0,0,1,3,6.68l2.26,9.93a17.55,17.55,0,0,0,1.8,5.42,3.38,3.38,0,0,0,2.89,1.53,3.66,3.66,0,0,0,2-.54,13.09,13.09,0,0,0,1.89-1.62ZM92.53,95.69c3.61,0,6.5-.72,8.49-2.08a11.17,11.17,0,0,0,4.24-5.5,25.93,25.93,0,0,0,1.17-8.4c0-5.23-.9-9.21-2.8-11.91s-5-4.07-9.2-4.07a8.64,8.64,0,0,0-3.89.73,3.58,3.58,0,0,0-1.71,2.43,24.39,24.39,0,0,0-.45,5.24V95.69Z"/></g></g></g></svg>