<svg id="AB" xmlns="http://www.w3.org/2000/svg" width="800" height="800" viewBox="0 0 800 800">
  <metadata><?xpacket begin="﻿" id="W5M0MpCehiHzreSzNTczkc9d"?>
<x:xmpmeta xmlns:x="adobe:ns:meta/" x:xmptk="Adobe XMP Core 5.6-c140 79.160451, 2017/05/06-01:08:21        ">
   <rdf:RDF xmlns:rdf="http://www.w3.org/1999/02/22-rdf-syntax-ns#">
      <rdf:Description rdf:about=""/>
   </rdf:RDF>
</x:xmpmeta>
                                                                                                    
                                                                                                    
                                                                                                    
                                                                                                    
                                                                                                    
                                                                                                    
                                                                                                    
                                                                                                    
                                                                                                    
                                                                                                    
                                                                                                    
                                                                                                    
                                                                                                    
                                                                                                    
                                                                                                    
                                                                                                    
                                                                                                    
                                                                                                    
                                                                                                    
                                                                                                    
                           
<?xpacket end="w"?></metadata>
<defs>
    <style>
      .cls-1 {
        fill: #fd2284;
      }

      .cls-2 {
        fill: #fd2274;
      }

      .cls-3 {
        fill: #fff;
        fill-rule: evenodd;
      }
    </style>
  </defs>
  <circle id="_1" data-name="1" class="cls-1" cx="400" cy="400" r="390"/>
  <circle id="_2" data-name="2" class="cls-2" cx="400" cy="400" r="390"/>
  <path id="B" class="cls-3" d="M400,778C191.243,778,22,608.767,22,400S191.243,22,400,22,778.006,191.237,778.006,400,608.756,778,400,778ZM278.176,363.541h30.108c5.2-.016-5.221.024,0,0L400,363.422c6.742,0.047-6.726-.088,0,0,19.744,0.263,44.9,23.074,63.521,36.408-19.472,12.522-42.73,36.927-63.521,36.76-32.916-.279-51.154.5-85.35,0H278.067V631.682c41.791,0,80.293.613,121.928,0,55.755-.837,90.277-31.611,115.482-80.884,25.7-50.23,19.348-98.411-14.965-142.814-5.073-6.575-3.755-10.314.07-16.993,9.759-16.961,21.31-34.049,25.9-52.612,20.139-81.514-43.373-155.455-124.892-157.472-38.718-.956-75.529.231-112.51-0.574-10.077-.215-11.171,4.806-11.132,13.175C278.028,213.522,278.176,363.541,278.176,363.541Z"/>
</svg>
