<svg viewBox="0 0 500 500" xmlns="http://www.w3.org/2000/svg" fill-rule="evenodd" clip-rule="evenodd" stroke-linejoin="round" stroke-miterlimit="1.414"><path d="M91.494 297.719l44.252-162.023c4.004-14.667 15.454-26.244 30.267-30.592 4.671-1.388 9.449-1.964 14.173-1.833L72.997 9.504a85.695 85.695 0 0 0-32.99 11.603C15.16 36.193 0 62.83 0 91.537v323.338c0 28.68 15.16 55.317 40.009 70.404l.24.157 51.246-187.717z" fill="#ff9f01"/><path d="M91.494 297.719l44.252-162.023c4.004-14.667 15.454-26.244 30.267-30.592 4.671-1.388 9.449-1.964 14.173-1.833L72.997 9.504a85.695 85.695 0 0 0-32.99 11.603C15.16 36.193 0 62.83 0 91.537v323.338c0 28.68 91.495-117.156 91.495-117.156z" fill-opacity=".2"/><path d="M91.494 297.719l44.252-162.023c4.004-14.667 15.454-26.244 30.267-30.592 4.671-1.388 9.449-1.964 14.173-1.833L72.997 9.504a85.695 85.695 0 0 0-32.99 11.603C15.16 36.193 0 62.83 0 91.537c0 96.674 91.495 206.182 91.495 206.182z" fill-opacity=".2"/><path d="M0 91.537c0 96.674 135.746 44.16 135.746 44.16 4.004-14.668 15.454-26.245 30.267-30.593 4.671-1.388 9.449-1.964 14.173-1.833L72.997 9.504a85.695 85.695 0 0 0-32.99 11.603C15.16 36.193 0 62.83 0 91.537z" fill-opacity=".2"/><path d="M362.049 291.472l135.587-27.554a82.358 82.358 0 0 0 2.375-19.565c0-31.352-18.043-60.006-46.628-74.018A3896993.909 3896993.909 0 0 0 123.89 8.652 85.622 85.622 0 0 0 90.1.01l195.054 170.588 70.89 61.708c12.65 11 17.882 28.077 13.505 44.08a43.92 43.92 0 0 1-7.5 15.087z" fill="#ff9f01"/><path d="M362.049 291.447l135.587-27.554a82.358 82.358 0 0 0 2.375-19.565c0-31.352-18.043-60.006-46.628-74.018A3896993.909 3896993.909 0 0 0 123.89 8.628c-10.702-5.239 161.264 161.944 161.264 161.944l70.89 61.708c12.65 11 17.882 28.077 13.505 44.08a43.92 43.92 0 0 1-7.5 15.087z" fill-opacity=".2"/><path d="M362.049 291.447l135.587-27.554a82.358 82.358 0 0 0 2.375-19.565c0-31.352-18.043-60.006-46.628-74.018-101.77-49.948-168.23.262-168.23.262l70.89 61.708c12.651 11 17.883 28.077 13.506 44.08a43.92 43.92 0 0 1-7.5 15.087z" fill-opacity=".2"/><path d="M362.049 291.472l135.587-27.554a82.358 82.358 0 0 0 2.375-19.565c0-31.352-18.043-60.006-46.628-74.018-101.77-49.948-97.34 61.97-97.34 61.97 12.651 11 17.883 28.077 13.506 44.08a43.92 43.92 0 0 1-7.5 15.087z" fill-opacity=".2"/><path d="M57.89 492.611c22.873 10.032 49.376 9.639 72.143-1.519 95.125-46.7 227.722-111.734 329.493-161.682 18.71-9.193 32.909-24.646 40.49-43.033L347.238 317.44a46.924 46.924 0 0 1-5.711 1.52L186.27 350.154l-6.593 1.336v-.026l-29.039 5.84c-15.16 3.039-30.827-1.833-41.423-12.886a43.9 43.9 0 0 1-7.82-11.158L57.888 492.611z" fill="#ff9f01"/><path d="M57.89 492.611c22.873 10.032 49.376 9.639 72.143-1.519 95.125-46.7 227.722-111.734 329.493-161.682 18.71-9.193-112.287-11.97-112.287-11.97a46.924 46.924 0 0 1-5.711 1.52L186.27 350.154l-6.593 1.336v-.026l-29.039 5.84c-15.16 3.039-30.827-1.833-41.423-12.886a43.9 43.9 0 0 1-7.82-11.158L57.888 492.611z" fill-opacity=".2"/><path d="M57.89 492.611c22.873 10.032 49.376 9.639 72.143-1.519 95.125-46.7 217.206-173.652 217.206-173.652a46.924 46.924 0 0 1-5.711 1.52L186.27 350.154l-6.593 1.336v-.026l-29.039 5.84c-15.16 3.039-30.827-1.833-41.423-12.886a43.9 43.9 0 0 1-7.82-11.158L57.888 492.611z" fill-opacity=".2"/><path d="M57.89 492.611c22.873 10.032 49.376 9.639 72.143-1.519 95.125-46.7 56.237-140.938 56.237-140.938l-6.593 1.336v-.026l-29.039 5.84c-15.16 3.039-30.827-1.833-41.423-12.886a43.9 43.9 0 0 1-7.82-11.158L57.888 492.611z" fill-opacity=".29"/></svg>